<svg
  width="512"
  height="512"
  viewBox="0 0 512 512"
  xmlns="http://www.w3.org/2000/svg">

  <rect x="0" y="0" width="512" height="512" fill="none" />

  <!-- Franklin-style B with long leftward flourish -->
  <path
    d="
      M360 90
      Q300 70 250 80
      Q200 90 170 120
      Q135 155 135 205
      Q135 255 160 295
      Q185 335 205 360

      Q215 320 215 285
      Q215 245 225 215

      Q245 155 295 135
      Q335 120 360 135
      Q385 150 380 180
      Q375 205 345 220
      Q315 235 280 235
      Q255 235 235 230

      Q270 240 300 255
      Q335 275 355 300
      Q375 325 375 350
      Q375 380 355 400
      Q330 425 290 435
      Q250 445 215 435
    "
    fill="none"
    stroke="#111111"
    stroke-width="18"
    stroke-linecap="round"
    stroke-linejoin="round"
  />
</svg>